<?xml version="1.0" standalone="no"?><!DOCTYPE svg PUBLIC "-//W3C//DTD SVG 1.1//EN" "http://www.w3.org/Graphics/SVG/1.1/DTD/svg11.dtd"><svg t="1594782184709" class="icon" viewBox="0 0 6530 1024" version="1.1" xmlns="http://www.w3.org/2000/svg" p-id="20199" xmlns:xlink="http://www.w3.org/1999/xlink" width="1632.5" height="256"><defs><style type="text/css"></style></defs><path d="M873.484597 1019.155084l-333.222585-180.338556-330.638629 185.237304 68.582484-372.627904L0 394.214699l375.588687-49.956472L534.232783 0l163.542845 341.781937 376.288508 44.573231-274.545263 261.194827z" fill="#ffc400" p-id="20200" data-spm-anchor-id="a313x.7781069.0.i14" class=""></path><path d="M2237.436232 1019.155084l-333.222585-180.338556-330.638629 185.237304 68.582484-372.627904-278.205867-257.211229 375.588687-49.956472L1898.184418 0l163.542845 341.781937 376.288508 44.573231-274.545263 261.194827z" fill="#ffc400" p-id="20201"></path><path d="M3601.334034 1019.155084l-333.222584-180.338556-330.638629 185.237304 68.582483-372.627904-278.205867-257.211229 375.588687-49.956472L3262.082221 0l163.542845 341.781937 376.288508 44.573231-274.545264 261.194827z" fill="#ffc400" p-id="20202"></path><path d="M4965.285669 1019.155084l-333.222584-180.338556-330.638629 185.237304 68.582483-372.627904-278.205867-257.211229 375.588687-49.956472L4626.033856 0l163.542845 341.781937 376.288508 44.573231-274.545264 261.194827z" fill="#ffc400" p-id="20203"></path><path d="M6329.237304 1019.155084l-333.222584-180.338556-330.638629 185.237304 68.582483-372.627904-278.205867-257.211229 375.588687-49.956472L5989.98549 0l163.542846 341.781937 376.288508 44.573231-274.545264 261.194827z" fill="#ffc400" p-id="20204"></path></svg>